<svg width="267" height="50" viewBox="0 0 267 50" fill="none" xmlns="http://www.w3.org/2000/svg">
<path d="M52.688 31.448H60.048V35H48.208V12.664H52.688V31.448ZM79.3755 25.752C79.3755 26.392 79.3328 26.968 79.2475 27.48H66.2875C66.3942 28.76 66.8422 29.7627 67.6315 30.488C68.4208 31.2133 69.3915 31.576 70.5435 31.576C72.2075 31.576 73.3915 30.8613 74.0955 29.432H78.9275C78.4155 31.1387 77.4342 32.5467 75.9835 33.656C74.5328 34.744 72.7515 35.288 70.6395 35.288C68.9328 35.288 67.3968 34.9147 66.0315 34.168C64.6875 33.4 63.6315 32.3227 62.8635 30.936C62.1168 29.5493 61.7435 27.9493 61.7435 26.136C61.7435 24.3013 62.1168 22.6907 62.8635 21.304C63.6102 19.9173 64.6555 18.8507 65.9995 18.104C67.3435 17.3573 68.8902 16.984 70.6395 16.984C72.3248 16.984 73.8288 17.3467 75.1515 18.072C76.4955 18.7973 77.5302 19.832 78.2555 21.176C79.0022 22.4987 79.3755 24.024 79.3755 25.752ZM74.7355 24.472C74.7142 23.32 74.2982 22.4027 73.4875 21.72C72.6768 21.016 71.6848 20.664 70.5115 20.664C69.4022 20.664 68.4635 21.0053 67.6955 21.688C66.9488 22.3493 66.4902 23.2773 66.3195 24.472H74.7355ZM81.4935 26.072C81.4935 24.28 81.8455 22.6907 82.5495 21.304C83.2748 19.9173 84.2455 18.8507 85.4615 18.104C86.6988 17.3573 88.0748 16.984 89.5895 16.984C90.9122 16.984 92.0642 17.2507 93.0455 17.784C94.0482 18.3173 94.8482 18.9893 95.4455 19.8V17.272H99.9575V35H95.4455V32.408C94.8695 33.24 94.0695 33.9333 93.0455 34.488C92.0428 35.0213 90.8802 35.288 89.5575 35.288C88.0642 35.288 86.6988 34.904 85.4615 34.136C84.2455 33.368 83.2748 32.2907 82.5495 30.904C81.8455 29.496 81.4935 27.8853 81.4935 26.072ZM95.4455 26.136C95.4455 25.048 95.2322 24.12 94.8055 23.352C94.3788 22.5627 93.8028 21.9653 93.0775 21.56C92.3522 21.1333 91.5735 20.92 90.7415 20.92C89.9095 20.92 89.1415 21.1227 88.4375 21.528C87.7335 21.9333 87.1575 22.5307 86.7095 23.32C86.2828 24.088 86.0695 25.0053 86.0695 26.072C86.0695 27.1387 86.2828 28.0773 86.7095 28.888C87.1575 29.6773 87.7335 30.2853 88.4375 30.712C89.1628 31.1387 89.9308 31.352 90.7415 31.352C91.5735 31.352 92.3522 31.1493 93.0775 30.744C93.8028 30.3173 94.3788 29.72 94.8055 28.952C95.2322 28.1627 95.4455 27.224 95.4455 26.136ZM108.813 20.024C109.389 19.0853 110.136 18.3493 111.053 17.816C111.992 17.2827 113.058 17.016 114.253 17.016V21.72H113.069C111.661 21.72 110.594 22.0507 109.869 22.712C109.165 23.3733 108.813 24.5253 108.813 26.168V35H104.333V17.272H108.813V20.024ZM127.095 17.016C129.207 17.016 130.913 17.688 132.215 19.032C133.516 20.3547 134.167 22.2107 134.167 24.6V35H129.687V25.208C129.687 23.8 129.335 22.7227 128.631 21.976C127.927 21.208 126.967 20.824 125.751 20.824C124.513 20.824 123.532 21.208 122.807 21.976C122.103 22.7227 121.751 23.8 121.751 25.208V35H117.271V17.272H121.751V19.48C122.348 18.712 123.105 18.1147 124.023 17.688C124.961 17.24 125.985 17.016 127.095 17.016ZM142.907 11.32V35H138.427V11.32H142.907ZM164.293 17.272L153.317 43.384H148.549L152.389 34.552L145.285 17.272H150.309L154.885 29.656L159.525 17.272H164.293ZM200.486 12.664V35H196.006V25.496H186.438V35H181.958V12.664H186.438V21.848H196.006V12.664H200.486ZM221.536 38.936L218.144 34.872C217.205 35.1067 216.245 35.224 215.264 35.224C213.173 35.224 211.253 34.7333 209.504 33.752C207.754 32.7707 206.368 31.416 205.344 29.688C204.32 27.9387 203.808 25.9653 203.808 23.768C203.808 21.592 204.32 19.64 205.344 17.912C206.368 16.1627 207.754 14.7973 209.504 13.816C211.253 12.8347 213.173 12.344 215.264 12.344C217.376 12.344 219.296 12.8347 221.024 13.816C222.773 14.7973 224.149 16.1627 225.152 17.912C226.176 19.64 226.688 21.592 226.688 23.768C226.688 25.752 226.261 27.5653 225.408 29.208C224.576 30.8293 223.434 32.152 221.984 33.176L227.104 38.936H221.536ZM208.416 23.768C208.416 25.2613 208.704 26.5733 209.28 27.704C209.856 28.8347 210.656 29.7093 211.68 30.328C212.725 30.9253 213.92 31.224 215.264 31.224C216.608 31.224 217.792 30.9253 218.816 30.328C219.84 29.7093 220.64 28.8347 221.216 27.704C221.792 26.5733 222.08 25.2613 222.08 23.768C222.08 22.2747 221.792 20.9733 221.216 19.864C220.64 18.7333 219.84 17.8693 218.816 17.272C217.792 16.6747 216.608 16.376 215.264 16.376C213.92 16.376 212.725 16.6747 211.68 17.272C210.656 17.8693 209.856 18.7333 209.28 19.864C208.704 20.9733 208.416 22.2747 208.416 23.768Z" fill="#191A1A" fill-opacity="0.7"/>
<path d="M27.5 15.0625C27.5 13.4308 27.0601 11.8358 26.236 10.479C25.4119 9.12234 24.2406 8.06492 22.8701 7.4405C21.4997 6.81607 19.9917 6.6527 18.5368 6.97103C17.082 7.28935 15.7456 8.07509 14.6967 9.22887C13.6478 10.3827 12.9335 11.8527 12.6441 13.453C12.3547 15.0534 12.5033 16.7122 13.0709 18.2196C13.6386 19.7271 14.5999 21.0156 15.8332 21.9221C17.0666 22.8286 18.5166 23.3125 20 23.3125C21.9885 23.3102 23.8949 22.4403 25.301 20.8936C26.7071 19.3469 27.4979 17.2498 27.5 15.0625ZM20 19.1875C19.2583 19.1875 18.5333 18.9456 17.9166 18.4923C17.2999 18.0391 16.8193 17.3948 16.5355 16.6411C16.2516 15.8873 16.1774 15.0579 16.3221 14.2578C16.4668 13.4576 16.8239 12.7226 17.3484 12.1457C17.8728 11.5688 18.541 11.1759 19.2684 11.0168C19.9958 10.8576 20.7498 10.9393 21.4351 11.2515C22.1203 11.5637 22.706 12.0924 23.118 12.7708C23.5301 13.4491 23.75 14.2467 23.75 15.0625C23.75 16.1565 23.3549 17.2057 22.6517 17.9793C21.9484 18.7529 20.9946 19.1875 20 19.1875ZM29.375 23.3125C27.8916 23.3125 26.4416 23.7964 25.2082 24.7029C23.9749 25.6094 23.0136 26.8979 22.4459 28.4054C21.8782 29.9129 21.7297 31.5717 22.0191 33.172C22.3085 34.7723 23.0228 36.2424 24.0717 37.3961C25.1206 38.5499 26.457 39.3357 27.9118 39.654C29.3667 39.9723 30.8747 39.8089 32.2451 39.1845C33.6156 38.5601 34.7869 37.5027 35.611 36.146C36.4351 34.7893 36.875 33.1942 36.875 31.5625C36.8729 29.3752 36.0821 27.2781 34.676 25.7314C33.2699 24.1847 31.3635 23.3148 29.375 23.3125ZM29.375 35.6875C28.6333 35.6875 27.9083 35.4456 27.2916 34.9923C26.6749 34.5391 26.1943 33.8948 25.9105 33.1411C25.6266 32.3873 25.5524 31.5579 25.6971 30.7578C25.8418 29.9576 26.1989 29.2226 26.7234 28.6457C27.2478 28.0688 27.916 27.6759 28.6434 27.5168C29.3708 27.3576 30.1248 27.4393 30.8101 27.7515C31.4953 28.0637 32.081 28.5924 32.493 29.2708C32.9051 29.9491 33.125 30.7467 33.125 31.5625C33.125 32.6565 32.7299 33.7057 32.0267 34.4793C31.3234 35.2529 30.3696 35.6875 29.375 35.6875ZM10.625 23.3125C9.14164 23.3125 7.6916 23.7964 6.45823 24.7029C5.22486 25.6094 4.26356 26.8979 3.69591 28.4054C3.12825 29.9129 2.97972 31.5717 3.26911 33.172C3.5585 34.7723 4.27281 36.2424 5.3217 37.3961C6.3706 38.5499 7.70697 39.3357 9.16183 39.654C10.6167 39.9723 12.1247 39.8089 13.4951 39.1845C14.8656 38.5601 16.0369 37.5027 16.861 36.146C17.6851 34.7893 18.125 33.1942 18.125 31.5625C18.1229 29.3752 17.3321 27.2781 15.926 25.7314C14.5199 24.1847 12.6135 23.3148 10.625 23.3125ZM10.625 35.6875C9.88332 35.6875 9.1583 35.4456 8.54162 34.9923C7.92493 34.5391 7.44428 33.8948 7.16046 33.1411C6.87663 32.3873 6.80236 31.5579 6.94706 30.7578C7.09175 29.9576 7.44891 29.2226 7.97335 28.6457C8.4978 28.0688 9.16599 27.6759 9.89341 27.5168C10.6208 27.3576 11.3748 27.4393 12.0601 27.7515C12.7453 28.0637 13.331 28.5924 13.743 29.2708C14.1551 29.9491 14.375 30.7467 14.375 31.5625C14.375 32.6565 13.9799 33.7057 13.2767 34.4793C12.5734 35.2529 11.6196 35.6875 10.625 35.6875Z" fill="#171A1F" fill-opacity="0.7"/>
</svg>
