<svg width="364" height="66" viewBox="0 0 364 66" fill="none" xmlns="http://www.w3.org/2000/svg">
<path d="M72.7436 47.672H83.7836V53H66.0236V19.496H72.7436V47.672ZM112.775 39.128C112.775 40.088 112.711 40.952 112.583 41.72H93.1429C93.3029 43.64 93.9749 45.144 95.1589 46.232C96.3429 47.32 97.7989 47.864 99.5269 47.864C102.023 47.864 103.799 46.792 104.855 44.648H112.103C111.335 47.208 109.863 49.32 107.687 50.984C105.511 52.616 102.839 53.432 99.6709 53.432C97.1109 53.432 94.8069 52.872 92.7589 51.752C90.7429 50.6 89.1589 48.984 88.0069 46.904C86.8869 44.824 86.3269 42.424 86.3269 39.704C86.3269 36.952 86.8869 34.536 88.0069 32.456C89.1269 30.376 90.6949 28.776 92.7109 27.656C94.7269 26.536 97.0469 25.976 99.6709 25.976C102.199 25.976 104.455 26.52 106.439 27.608C108.455 28.696 110.007 30.248 111.095 32.264C112.215 34.248 112.775 36.536 112.775 39.128ZM105.815 37.208C105.783 35.48 105.159 34.104 103.943 33.08C102.727 32.024 101.239 31.496 99.4789 31.496C97.8149 31.496 96.4069 32.008 95.2549 33.032C94.1349 34.024 93.4469 35.416 93.1909 37.208H105.815ZM115.952 39.608C115.952 36.92 116.48 34.536 117.536 32.456C118.624 30.376 120.08 28.776 121.904 27.656C123.76 26.536 125.824 25.976 128.096 25.976C130.08 25.976 131.808 26.376 133.28 27.176C134.784 27.976 135.984 28.984 136.88 30.2V26.408H143.648V53H136.88V49.112C136.016 50.36 134.816 51.4 133.28 52.232C131.776 53.032 130.032 53.432 128.048 53.432C125.808 53.432 123.76 52.856 121.904 51.704C120.08 50.552 118.624 48.936 117.536 46.856C116.48 44.744 115.952 42.328 115.952 39.608ZM136.88 39.704C136.88 38.072 136.56 36.68 135.92 35.528C135.28 34.344 134.416 33.448 133.328 32.84C132.24 32.2 131.072 31.88 129.824 31.88C128.576 31.88 127.424 32.184 126.368 32.792C125.312 33.4 124.448 34.296 123.776 35.48C123.136 36.632 122.816 38.008 122.816 39.608C122.816 41.208 123.136 42.616 123.776 43.832C124.448 45.016 125.312 45.928 126.368 46.568C127.456 47.208 128.608 47.528 129.824 47.528C131.072 47.528 132.24 47.224 133.328 46.616C134.416 45.976 135.28 45.08 135.92 43.928C136.56 42.744 136.88 41.336 136.88 39.704ZM156.931 30.536C157.795 29.128 158.915 28.024 160.291 27.224C161.699 26.424 163.299 26.024 165.091 26.024V33.08H163.315C161.203 33.08 159.603 33.576 158.515 34.568C157.459 35.56 156.931 37.288 156.931 39.752V53H150.211V26.408H156.931V30.536ZM184.353 26.024C187.521 26.024 190.081 27.032 192.033 29.048C193.985 31.032 194.961 33.816 194.961 37.4V53H188.241V38.312C188.241 36.2 187.713 34.584 186.657 33.464C185.601 32.312 184.161 31.736 182.337 31.736C180.481 31.736 179.009 32.312 177.921 33.464C176.865 34.584 176.337 36.2 176.337 38.312V53H169.617V26.408H176.337V29.72C177.233 28.568 178.369 27.672 179.745 27.032C181.153 26.36 182.689 26.024 184.353 26.024ZM208.072 17.48V53H201.352V17.48H208.072ZM240.151 26.408L223.687 65.576H216.535L222.295 52.328L211.639 26.408H219.175L226.039 44.984L232.999 26.408H240.151ZM294.441 19.496V53H287.721V38.744H273.369V53H266.649V19.496H273.369V33.272H287.721V19.496H294.441ZM326.015 58.904L320.927 52.808C319.519 53.16 318.079 53.336 316.607 53.336C313.471 53.336 310.591 52.6 307.967 51.128C305.343 49.656 303.263 47.624 301.727 45.032C300.191 42.408 299.423 39.448 299.423 36.152C299.423 32.888 300.191 29.96 301.727 27.368C303.263 24.744 305.343 22.696 307.967 21.224C310.591 19.752 313.471 19.016 316.607 19.016C319.775 19.016 322.655 19.752 325.247 21.224C327.871 22.696 329.935 24.744 331.439 27.368C332.975 29.96 333.743 32.888 333.743 36.152C333.743 39.128 333.103 41.848 331.823 44.312C330.575 46.744 328.863 48.728 326.687 50.264L334.367 58.904H326.015ZM306.335 36.152C306.335 38.392 306.767 40.36 307.631 42.056C308.495 43.752 309.695 45.064 311.231 45.992C312.799 46.888 314.591 47.336 316.607 47.336C318.623 47.336 320.399 46.888 321.935 45.992C323.471 45.064 324.671 43.752 325.535 42.056C326.399 40.36 326.831 38.392 326.831 36.152C326.831 33.912 326.399 31.96 325.535 30.296C324.671 28.6 323.471 27.304 321.935 26.408C320.399 25.512 318.623 25.064 316.607 25.064C314.591 25.064 312.799 25.512 311.231 26.408C309.695 27.304 308.495 28.6 307.631 30.296C306.767 31.96 306.335 33.912 306.335 36.152Z" fill="#191A1A" fill-opacity="0.7"/>
<path d="M37.4906 19.5815C37.4906 17.4602 36.891 15.3867 35.7674 13.623C34.6439 11.8592 33.0471 10.4846 31.1787 9.67284C29.3104 8.86109 27.2546 8.6487 25.2712 9.06253C23.2878 9.47635 21.4659 10.4978 20.0359 11.9977C18.606 13.4976 17.6322 15.4087 17.2377 17.4891C16.8431 19.5696 17.0456 21.726 17.8195 23.6857C18.5934 25.6455 19.9039 27.3205 21.5854 28.499C23.2668 29.6774 25.2436 30.3065 27.2659 30.3065C29.9768 30.3035 32.5759 29.1726 34.4928 27.1619C36.4097 25.1512 37.4878 22.425 37.4906 19.5815ZM27.2659 24.944C26.2548 24.944 25.2664 24.6294 24.4256 24.0402C23.5849 23.451 22.9296 22.6135 22.5427 21.6336C22.1558 20.6537 22.0545 19.5755 22.2518 18.5353C22.449 17.4951 22.9359 16.5396 23.6509 15.7896C24.3659 15.0396 25.2768 14.5289 26.2685 14.322C27.2602 14.1151 28.2882 14.2213 29.2223 14.6271C30.1565 15.033 30.9549 15.7203 31.5167 16.6022C32.0784 17.4841 32.3783 18.5208 32.3783 19.5815C32.3783 21.0037 31.8396 22.3676 30.8809 23.3733C29.9221 24.379 28.6218 24.944 27.2659 24.944ZM40.0468 30.3065C38.0245 30.3065 36.0477 30.9355 34.3663 32.1139C32.6848 33.2924 31.3743 34.9674 30.6004 36.9272C29.8265 38.8869 29.624 41.0433 30.0186 43.1238C30.4131 45.2042 31.3869 47.1153 32.8168 48.6152C34.2468 50.1151 36.0687 51.1365 38.0521 51.5504C40.0355 51.9642 42.0913 51.7518 43.9596 50.9401C45.828 50.1283 47.4248 48.7537 48.5483 46.9899C49.6719 45.2262 50.2715 43.1527 50.2715 41.0315C50.2687 38.1879 49.1906 35.4617 47.2737 33.451C45.3568 31.4403 42.7577 30.3094 40.0468 30.3065ZM40.0468 46.394C39.0357 46.394 38.0473 46.0794 37.2065 45.4902C36.3658 44.901 35.7105 44.0635 35.3236 43.0836C34.9367 42.1037 34.8354 41.0255 35.0327 39.9853C35.2299 38.9451 35.7168 37.9896 36.4318 37.2396C37.1468 36.4896 38.0577 35.9789 39.0494 35.772C40.0411 35.5651 41.0691 35.6713 42.0032 36.0771C42.9374 36.483 43.7358 37.1703 44.2976 38.0522C44.8593 38.9341 45.1592 39.9708 45.1592 41.0315C45.1592 42.4537 44.6205 43.8176 43.6618 44.8233C42.703 45.829 41.4027 46.394 40.0468 46.394ZM14.485 30.3065C12.4627 30.3065 10.4859 30.9355 8.80446 32.1139C7.12301 33.2924 5.81248 34.9674 5.0386 36.9272C4.26471 38.8869 4.06223 41.0433 4.45675 43.1238C4.85128 45.2042 5.82509 47.1153 7.25504 48.6152C8.68499 50.1151 10.5069 51.1365 12.4903 51.5504C14.4737 51.9642 16.5295 51.7518 18.3978 50.9401C20.2662 50.1283 21.863 48.7537 22.9866 46.9899C24.1101 45.2262 24.7097 43.1527 24.7097 41.0315C24.7069 38.1879 23.6288 35.4617 21.7119 33.451C19.795 31.4403 17.1959 30.3094 14.485 30.3065ZM14.485 46.394C13.4739 46.394 12.4855 46.0794 11.6447 45.4902C10.804 44.901 10.1487 44.0635 9.7618 43.0836C9.37486 42.1037 9.27362 41.0255 9.47088 39.9853C9.66814 38.9451 10.155 37.9896 10.87 37.2396C11.585 36.4896 12.4959 35.9789 13.4876 35.772C14.4793 35.5651 15.5073 35.6713 16.4414 36.0771C17.3756 36.483 18.174 37.1703 18.7358 38.0522C19.2975 38.9341 19.5974 39.9708 19.5974 41.0315C19.5974 42.4537 19.0587 43.8176 18.1 44.8233C17.1412 45.829 15.8409 46.394 14.485 46.394Z" fill="#171A1F" fill-opacity="0.7"/>
</svg>
