<svg width="219" height="39" viewBox="0 0 219 39" fill="none" xmlns="http://www.w3.org/2000/svg">
<path d="M61.2045 13.5455L55.1023 31H49.6477L43.5455 13.5455H48.6591L52.2841 26.0341H52.4659L56.0795 13.5455H61.2045ZM71.0739 31.3409C69.2784 31.3409 67.733 30.9773 66.4375 30.25C65.1496 29.5152 64.1572 28.4773 63.4602 27.1364C62.7633 25.7879 62.4148 24.1932 62.4148 22.3523C62.4148 20.5568 62.7633 18.9811 63.4602 17.625C64.1572 16.2689 65.1383 15.2121 66.4034 14.4545C67.6761 13.697 69.1686 13.3182 70.8807 13.3182C72.0322 13.3182 73.1042 13.5038 74.0966 13.875C75.0966 14.2386 75.9678 14.7879 76.7102 15.5227C77.4602 16.2576 78.0436 17.1818 78.4602 18.2955C78.8769 19.4015 79.0852 20.697 79.0852 22.1818V23.5114H64.3466V20.5114H74.5284C74.5284 19.8144 74.3769 19.197 74.0739 18.6591C73.7708 18.1212 73.3504 17.7008 72.8125 17.3977C72.2822 17.0871 71.6648 16.9318 70.9602 16.9318C70.2254 16.9318 69.5739 17.1023 69.0057 17.4432C68.4451 17.7765 68.0057 18.2273 67.6875 18.7955C67.3693 19.3561 67.2064 19.9811 67.1989 20.6705V23.5227C67.1989 24.3864 67.358 25.1326 67.6761 25.7614C68.0019 26.3902 68.4602 26.875 69.0511 27.2159C69.642 27.5568 70.3428 27.7273 71.1534 27.7273C71.6913 27.7273 72.1837 27.6515 72.6307 27.5C73.0777 27.3485 73.4602 27.1212 73.7784 26.8182C74.0966 26.5152 74.339 26.1439 74.5057 25.7045L78.983 26C78.7557 27.0758 78.2898 28.0152 77.5852 28.8182C76.8883 29.6136 75.9867 30.2348 74.8807 30.6818C73.7822 31.1212 72.5133 31.3409 71.0739 31.3409ZM90.1307 31.3409C88.3428 31.3409 86.8049 30.9621 85.517 30.2045C84.2367 29.4394 83.2519 28.3788 82.5625 27.0227C81.8807 25.6667 81.5398 24.1061 81.5398 22.3409C81.5398 20.553 81.8845 18.9848 82.5739 17.6364C83.2708 16.2803 84.2595 15.2235 85.5398 14.4659C86.8201 13.7008 88.3428 13.3182 90.108 13.3182C91.6307 13.3182 92.964 13.5947 94.108 14.1477C95.2519 14.7008 96.1572 15.4773 96.8239 16.4773C97.4905 17.4773 97.858 18.6515 97.9261 20H93.358C93.2292 19.1288 92.8883 18.428 92.3352 17.8977C91.7898 17.3598 91.0739 17.0909 90.1875 17.0909C89.4375 17.0909 88.7822 17.2955 88.2216 17.7045C87.6686 18.1061 87.2367 18.6932 86.9261 19.4659C86.6155 20.2386 86.4602 21.1742 86.4602 22.2727C86.4602 23.3864 86.6117 24.3333 86.9148 25.1136C87.2254 25.8939 87.661 26.4886 88.2216 26.8977C88.7822 27.3068 89.4375 27.5114 90.1875 27.5114C90.7405 27.5114 91.2367 27.3977 91.6761 27.1705C92.1231 26.9432 92.4905 26.6136 92.7784 26.1818C93.0739 25.7424 93.267 25.2159 93.358 24.6023H97.9261C97.8504 25.9356 97.4867 27.1098 96.8352 28.125C96.1913 29.1326 95.3011 29.9205 94.1648 30.4886C93.0284 31.0568 91.6837 31.3409 90.1307 31.3409ZM110.31 13.5455V17.1818H99.7983V13.5455H110.31ZM102.185 9.36364H107.026V25.6364C107.026 26.0833 107.094 26.4318 107.23 26.6818C107.366 26.9242 107.556 27.0947 107.798 27.1932C108.048 27.2917 108.336 27.3409 108.662 27.3409C108.889 27.3409 109.116 27.322 109.344 27.2841C109.571 27.2386 109.745 27.2045 109.866 27.1818L110.628 30.7841C110.385 30.8598 110.045 30.947 109.605 31.0455C109.166 31.1515 108.632 31.2159 108.003 31.2386C106.836 31.2841 105.813 31.1288 104.935 30.7727C104.063 30.4167 103.385 29.8636 102.901 29.1136C102.416 28.3636 102.177 27.4167 102.185 26.2727V9.36364ZM118.44 31.3295C117.327 31.3295 116.334 31.1364 115.463 30.75C114.592 30.3561 113.902 29.7765 113.395 29.0114C112.895 28.2386 112.645 27.2765 112.645 26.125C112.645 25.1553 112.823 24.3409 113.179 23.6818C113.535 23.0227 114.02 22.4924 114.634 22.0909C115.247 21.6894 115.944 21.3864 116.724 21.1818C117.512 20.9773 118.338 20.8333 119.202 20.75C120.217 20.6439 121.035 20.5455 121.656 20.4545C122.277 20.3561 122.728 20.2121 123.009 20.0227C123.289 19.8333 123.429 19.553 123.429 19.1818V19.1136C123.429 18.3939 123.202 17.8371 122.747 17.4432C122.3 17.0492 121.664 16.8523 120.838 16.8523C119.967 16.8523 119.274 17.0455 118.759 17.4318C118.243 17.8106 117.902 18.2879 117.736 18.8636L113.259 18.5C113.486 17.4394 113.933 16.5227 114.599 15.75C115.266 14.9697 116.126 14.3712 117.179 13.9545C118.24 13.5303 119.467 13.3182 120.861 13.3182C121.83 13.3182 122.759 13.4318 123.645 13.6591C124.539 13.8864 125.33 14.2386 126.02 14.7159C126.717 15.1932 127.266 15.8068 127.668 16.5568C128.069 17.2992 128.27 18.1894 128.27 19.2273V31H123.679V28.5795H123.543C123.262 29.125 122.887 29.6061 122.418 30.0227C121.948 30.4318 121.384 30.7538 120.724 30.9886C120.065 31.2159 119.304 31.3295 118.44 31.3295ZM119.827 27.9886C120.539 27.9886 121.168 27.8485 121.713 27.5682C122.259 27.2803 122.687 26.8939 122.997 26.4091C123.308 25.9242 123.463 25.375 123.463 24.7614V22.9091C123.312 23.0076 123.103 23.0985 122.838 23.1818C122.58 23.2576 122.289 23.3295 121.963 23.3977C121.637 23.4583 121.312 23.5152 120.986 23.5682C120.66 23.6136 120.365 23.6553 120.099 23.6932C119.531 23.7765 119.035 23.9091 118.611 24.0909C118.187 24.2727 117.857 24.5189 117.622 24.8295C117.387 25.1326 117.27 25.5114 117.27 25.9659C117.27 26.625 117.509 27.1288 117.986 27.4773C118.471 27.8182 119.084 27.9886 119.827 27.9886ZM132.026 31V13.5455H136.719V16.5909H136.901C137.219 15.5076 137.753 14.6894 138.503 14.1364C139.253 13.5758 140.116 13.2955 141.094 13.2955C141.336 13.2955 141.598 13.3106 141.878 13.3409C142.158 13.3712 142.404 13.4129 142.616 13.4659V17.7614C142.389 17.6932 142.075 17.6326 141.673 17.5795C141.272 17.5265 140.904 17.5 140.571 17.5C139.859 17.5 139.223 17.6553 138.662 17.9659C138.109 18.2689 137.67 18.6932 137.344 19.2386C137.026 19.7841 136.866 20.4129 136.866 21.125V31H132.026ZM145.21 31V7.72727H150.131V26.9432H160.108V31H145.21ZM168.253 31.3295C167.139 31.3295 166.147 31.1364 165.276 30.75C164.404 30.3561 163.715 29.7765 163.207 29.0114C162.707 28.2386 162.457 27.2765 162.457 26.125C162.457 25.1553 162.635 24.3409 162.991 23.6818C163.348 23.0227 163.832 22.4924 164.446 22.0909C165.06 21.6894 165.757 21.3864 166.537 21.1818C167.325 20.9773 168.151 20.8333 169.014 20.75C170.029 20.6439 170.848 20.5455 171.469 20.4545C172.09 20.3561 172.541 20.2121 172.821 20.0227C173.101 19.8333 173.241 19.553 173.241 19.1818V19.1136C173.241 18.3939 173.014 17.8371 172.56 17.4432C172.113 17.0492 171.476 16.8523 170.651 16.8523C169.779 16.8523 169.086 17.0455 168.571 17.4318C168.056 17.8106 167.715 18.2879 167.548 18.8636L163.071 18.5C163.298 17.4394 163.745 16.5227 164.412 15.75C165.079 14.9697 165.938 14.3712 166.991 13.9545C168.052 13.5303 169.279 13.3182 170.673 13.3182C171.643 13.3182 172.571 13.4318 173.457 13.6591C174.351 13.8864 175.143 14.2386 175.832 14.7159C176.529 15.1932 177.079 15.8068 177.48 16.5568C177.882 17.2992 178.082 18.1894 178.082 19.2273V31H173.491V28.5795H173.355C173.075 29.125 172.7 29.6061 172.23 30.0227C171.76 30.4318 171.196 30.7538 170.537 30.9886C169.878 31.2159 169.116 31.3295 168.253 31.3295ZM169.639 27.9886C170.351 27.9886 170.98 27.8485 171.526 27.5682C172.071 27.2803 172.499 26.8939 172.81 26.4091C173.12 25.9242 173.276 25.375 173.276 24.7614V22.9091C173.124 23.0076 172.916 23.0985 172.651 23.1818C172.393 23.2576 172.101 23.3295 171.776 23.3977C171.45 23.4583 171.124 23.5152 170.798 23.5682C170.473 23.6136 170.177 23.6553 169.912 23.6932C169.344 23.7765 168.848 23.9091 168.423 24.0909C167.999 24.2727 167.67 24.5189 167.435 24.8295C167.2 25.1326 167.082 25.5114 167.082 25.9659C167.082 26.625 167.321 27.1288 167.798 27.4773C168.283 27.8182 168.897 27.9886 169.639 27.9886ZM181.929 31V7.72727H186.77V16.4773H186.918C187.13 16.0076 187.437 15.5303 187.838 15.0455C188.247 14.553 188.777 14.1439 189.429 13.8182C190.088 13.4848 190.906 13.3182 191.884 13.3182C193.156 13.3182 194.33 13.6515 195.406 14.3182C196.482 14.9773 197.342 15.9735 197.986 17.3068C198.63 18.6326 198.952 20.2955 198.952 22.2955C198.952 24.2424 198.637 25.8864 198.009 27.2273C197.387 28.5606 196.539 29.572 195.463 30.2614C194.395 30.9432 193.198 31.2841 191.872 31.2841C190.933 31.2841 190.134 31.1288 189.474 30.8182C188.823 30.5076 188.289 30.1174 187.872 29.6477C187.455 29.1705 187.137 28.6894 186.918 28.2045H186.702V31H181.929ZM186.668 22.2727C186.668 23.3106 186.812 24.2159 187.099 24.9886C187.387 25.7614 187.804 26.3636 188.349 26.7955C188.895 27.2197 189.558 27.4318 190.338 27.4318C191.126 27.4318 191.793 27.2159 192.338 26.7841C192.884 26.3447 193.296 25.7386 193.577 24.9659C193.865 24.1856 194.009 23.2879 194.009 22.2727C194.009 21.2652 193.868 20.3788 193.588 19.6136C193.308 18.8485 192.895 18.25 192.349 17.8182C191.804 17.3864 191.134 17.1705 190.338 17.1705C189.55 17.1705 188.884 17.3788 188.338 17.7955C187.8 18.2121 187.387 18.803 187.099 19.5682C186.812 20.3333 186.668 21.2348 186.668 22.2727ZM216.705 18.5227L212.273 18.7955C212.197 18.4167 212.034 18.0758 211.784 17.7727C211.534 17.4621 211.205 17.2159 210.795 17.0341C210.394 16.8447 209.913 16.75 209.352 16.75C208.602 16.75 207.97 16.9091 207.455 17.2273C206.939 17.5379 206.682 17.9545 206.682 18.4773C206.682 18.8939 206.848 19.2462 207.182 19.5341C207.515 19.822 208.087 20.053 208.898 20.2273L212.057 20.8636C213.754 21.2121 215.019 21.7727 215.852 22.5455C216.686 23.3182 217.102 24.3333 217.102 25.5909C217.102 26.7348 216.765 27.7386 216.091 28.6023C215.424 29.4659 214.508 30.1402 213.341 30.625C212.182 31.1023 210.845 31.3409 209.33 31.3409C207.019 31.3409 205.178 30.8598 203.807 29.8977C202.443 28.928 201.644 27.6098 201.409 25.9432L206.17 25.6932C206.314 26.3977 206.663 26.9356 207.216 27.3068C207.769 27.6705 208.477 27.8523 209.341 27.8523C210.189 27.8523 210.871 27.6894 211.386 27.3636C211.909 27.0303 212.174 26.6023 212.182 26.0795C212.174 25.6402 211.989 25.2803 211.625 25C211.261 24.7121 210.701 24.4924 209.943 24.3409L206.92 23.7386C205.216 23.3977 203.947 22.8068 203.114 21.9659C202.288 21.125 201.875 20.053 201.875 18.75C201.875 17.6288 202.178 16.6629 202.784 15.8523C203.398 15.0417 204.258 14.4167 205.364 13.9773C206.477 13.5379 207.78 13.3182 209.273 13.3182C211.477 13.3182 213.212 13.7841 214.477 14.7159C215.75 15.6477 216.492 16.9167 216.705 18.5227Z" fill="white"/>
<rect width="34" height="34" fill="#22314C"/>
<circle cx="17.5" cy="16.5" r="12.5" fill="white"/>
</svg>
