<svg width="375" height="51" viewBox="0 0 375 51" fill="none" xmlns="http://www.w3.org/2000/svg">
<path d="M33.336 11.024C36.6 11.024 39.224 12.032 41.208 14.048C43.224 16.032 44.232 18.816 44.232 22.4V38H37.512V23.312C37.512 21.232 36.984 19.648 35.928 18.56C34.872 17.44 33.432 16.88 31.608 16.88C29.784 16.88 28.328 17.44 27.24 18.56C26.184 19.648 25.656 21.232 25.656 23.312V38H18.936V23.312C18.936 21.232 18.408 19.648 17.352 18.56C16.296 17.44 14.856 16.88 13.032 16.88C11.176 16.88 9.704 17.44 8.616 18.56C7.56 19.648 7.032 21.232 7.032 23.312V38H0.312V11.408H7.032V14.624C7.896 13.504 9 12.624 10.344 11.984C11.72 11.344 13.224 11.024 14.856 11.024C16.936 11.024 18.792 11.472 20.424 12.368C22.056 13.232 23.32 14.48 24.216 16.112C25.08 14.576 26.328 13.344 27.96 12.416C29.624 11.488 31.416 11.024 33.336 11.024ZM48.8809 24.608C48.8809 21.92 49.4089 19.536 50.4649 17.456C51.5529 15.376 53.0089 13.776 54.8329 12.656C56.6889 11.536 58.7529 10.976 61.0249 10.976C63.0089 10.976 64.7369 11.376 66.2089 12.176C67.7129 12.976 68.9129 13.984 69.8089 15.2V11.408H76.5769V38H69.8089V34.112C68.9449 35.36 67.7449 36.4 66.2089 37.232C64.7049 38.032 62.9609 38.432 60.9769 38.432C58.7369 38.432 56.6889 37.856 54.8329 36.704C53.0089 35.552 51.5529 33.936 50.4649 31.856C49.4089 29.744 48.8809 27.328 48.8809 24.608ZM69.8089 24.704C69.8089 23.072 69.4889 21.68 68.8489 20.528C68.2089 19.344 67.3449 18.448 66.2569 17.84C65.1689 17.2 64.0009 16.88 62.7529 16.88C61.5049 16.88 60.3529 17.184 59.2969 17.792C58.2409 18.4 57.3769 19.296 56.7049 20.48C56.0649 21.632 55.7449 23.008 55.7449 24.608C55.7449 26.208 56.0649 27.616 56.7049 28.832C57.3769 30.016 58.2409 30.928 59.2969 31.568C60.3849 32.208 61.5369 32.528 62.7529 32.528C64.0009 32.528 65.1689 32.224 66.2569 31.616C67.3449 30.976 68.2089 30.08 68.8489 28.928C69.4889 27.744 69.8089 26.336 69.8089 24.704ZM90.9641 16.928V29.792C90.9641 30.688 91.1721 31.344 91.5881 31.76C92.0361 32.144 92.7721 32.336 93.7961 32.336H96.9161V38H92.6921C87.0281 38 84.1961 35.248 84.1961 29.744V16.928H81.0281V11.408H84.1961V4.832H90.9641V11.408H96.9161V16.928H90.9641ZM108.47 15.536C109.334 14.128 110.454 13.024 111.83 12.224C113.238 11.424 114.838 11.024 116.63 11.024V18.08H114.854C112.742 18.08 111.142 18.576 110.054 19.568C108.998 20.56 108.47 22.288 108.47 24.752V38H101.75V11.408H108.47V15.536ZM124.564 8.24C123.38 8.24 122.388 7.872 121.588 7.136C120.82 6.368 120.436 5.424 120.436 4.304C120.436 3.184 120.82 2.256 121.588 1.52C122.388 0.751998 123.38 0.367998 124.564 0.367998C125.748 0.367998 126.724 0.751998 127.492 1.52C128.292 2.256 128.692 3.184 128.692 4.304C128.692 5.424 128.292 6.368 127.492 7.136C126.724 7.872 125.748 8.24 124.564 8.24ZM127.876 11.408V38H121.156V11.408H127.876ZM149.203 38L143.731 29.744L138.883 38H131.683L140.371 24.656L131.587 11.408H139.171L144.595 19.616L149.491 11.408H156.691L147.955 24.656L156.787 38H149.203ZM180.885 18.032V23.696H160.533V18.032H180.885ZM213.141 24.128C213.141 25.088 213.077 25.952 212.949 26.72H193.509C193.669 28.64 194.341 30.144 195.525 31.232C196.709 32.32 198.165 32.864 199.893 32.864C202.389 32.864 204.165 31.792 205.221 29.648H212.469C211.701 32.208 210.229 34.32 208.053 35.984C205.877 37.616 203.205 38.432 200.037 38.432C197.477 38.432 195.173 37.872 193.125 36.752C191.109 35.6 189.525 33.984 188.373 31.904C187.253 29.824 186.693 27.424 186.693 24.704C186.693 21.952 187.253 19.536 188.373 17.456C189.493 15.376 191.061 13.776 193.077 12.656C195.093 11.536 197.413 10.976 200.037 10.976C202.565 10.976 204.821 11.52 206.805 12.608C208.821 13.696 210.373 15.248 211.461 17.264C212.581 19.248 213.141 21.536 213.141 24.128ZM206.181 22.208C206.149 20.48 205.525 19.104 204.309 18.08C203.093 17.024 201.605 16.496 199.845 16.496C198.181 16.496 196.773 17.008 195.621 18.032C194.501 19.024 193.813 20.416 193.557 22.208H206.181ZM224.766 2.48V38H218.046V2.48H224.766ZM234.814 8.24C233.63 8.24 232.638 7.872 231.838 7.136C231.07 6.368 230.686 5.424 230.686 4.304C230.686 3.184 231.07 2.256 231.838 1.52C232.638 0.751998 233.63 0.367998 234.814 0.367998C235.998 0.367998 236.974 0.751998 237.742 1.52C238.542 2.256 238.942 3.184 238.942 4.304C238.942 5.424 238.542 6.368 237.742 7.136C236.974 7.872 235.998 8.24 234.814 8.24ZM238.126 11.408V38H231.406V11.408H238.126ZM251.485 15.296C252.349 14.016 253.533 12.976 255.037 12.176C256.573 11.376 258.317 10.976 260.269 10.976C262.541 10.976 264.589 11.536 266.413 12.656C268.269 13.776 269.725 15.376 270.781 17.456C271.869 19.504 272.413 21.888 272.413 24.608C272.413 27.328 271.869 29.744 270.781 31.856C269.725 33.936 268.269 35.552 266.413 36.704C264.589 37.856 262.541 38.432 260.269 38.432C258.285 38.432 256.541 38.048 255.037 37.28C253.565 36.48 252.381 35.456 251.485 34.208V38H244.765V2.48H251.485V15.296ZM265.549 24.608C265.549 23.008 265.213 21.632 264.541 20.48C263.901 19.296 263.037 18.4 261.949 17.792C260.893 17.184 259.741 16.88 258.493 16.88C257.277 16.88 256.125 17.2 255.037 17.84C253.981 18.448 253.117 19.344 252.445 20.528C251.805 21.712 251.485 23.104 251.485 24.704C251.485 26.304 251.805 27.696 252.445 28.88C253.117 30.064 253.981 30.976 255.037 31.616C256.125 32.224 257.277 32.528 258.493 32.528C259.741 32.528 260.893 32.208 261.949 31.568C263.037 30.928 263.901 30.016 264.541 28.832C265.213 27.648 265.549 26.24 265.549 24.608ZM284.016 15.536C284.88 14.128 286 13.024 287.376 12.224C288.784 11.424 290.384 11.024 292.176 11.024V18.08H290.4C288.288 18.08 286.688 18.576 285.6 19.568C284.544 20.56 284.016 22.288 284.016 24.752V38H277.296V11.408H284.016V15.536ZM294.975 24.608C294.975 21.92 295.503 19.536 296.559 17.456C297.647 15.376 299.103 13.776 300.927 12.656C302.783 11.536 304.847 10.976 307.119 10.976C309.103 10.976 310.831 11.376 312.303 12.176C313.807 12.976 315.007 13.984 315.903 15.2V11.408H322.671V38H315.903V34.112C315.039 35.36 313.839 36.4 312.303 37.232C310.799 38.032 309.055 38.432 307.071 38.432C304.831 38.432 302.783 37.856 300.927 36.704C299.103 35.552 297.647 33.936 296.559 31.856C295.503 29.744 294.975 27.328 294.975 24.608ZM315.903 24.704C315.903 23.072 315.583 21.68 314.943 20.528C314.303 19.344 313.439 18.448 312.351 17.84C311.263 17.2 310.095 16.88 308.847 16.88C307.599 16.88 306.447 17.184 305.391 17.792C304.335 18.4 303.471 19.296 302.799 20.48C302.159 21.632 301.839 23.008 301.839 24.608C301.839 26.208 302.159 27.616 302.799 28.832C303.471 30.016 304.335 30.928 305.391 31.568C306.479 32.208 307.631 32.528 308.847 32.528C310.095 32.528 311.263 32.224 312.351 31.616C313.439 30.976 314.303 30.08 314.943 28.928C315.583 27.744 315.903 26.336 315.903 24.704ZM335.954 15.536C336.818 14.128 337.938 13.024 339.314 12.224C340.722 11.424 342.322 11.024 344.114 11.024V18.08H342.338C340.226 18.08 338.626 18.576 337.538 19.568C336.482 20.56 335.954 22.288 335.954 24.752V38H329.234V11.408H335.954V15.536ZM374.08 11.408L357.616 50.576H350.464L356.224 37.328L345.568 11.408H353.104L359.968 29.984L366.928 11.408H374.08Z" fill="#171A1F" fill-opacity="0.7"/>
</svg>
