<svg width="540" height="51" viewBox="0 0 540 51" fill="none" xmlns="http://www.w3.org/2000/svg">
<path d="M14.4 31.808L21.12 11.408H28.272L18.432 38H10.272L0.48 11.408H7.68L14.4 31.808ZM30.3184 24.608C30.3184 21.92 30.8464 19.536 31.9024 17.456C32.9904 15.376 34.4464 13.776 36.2704 12.656C38.1264 11.536 40.1904 10.976 42.4624 10.976C44.4464 10.976 46.1744 11.376 47.6464 12.176C49.1504 12.976 50.3504 13.984 51.2464 15.2V11.408H58.0144V38H51.2464V34.112C50.3824 35.36 49.1824 36.4 47.6464 37.232C46.1424 38.032 44.3984 38.432 42.4144 38.432C40.1744 38.432 38.1264 37.856 36.2704 36.704C34.4464 35.552 32.9904 33.936 31.9024 31.856C30.8464 29.744 30.3184 27.328 30.3184 24.608ZM51.2464 24.704C51.2464 23.072 50.9264 21.68 50.2864 20.528C49.6464 19.344 48.7824 18.448 47.6944 17.84C46.6064 17.2 45.4384 16.88 44.1904 16.88C42.9424 16.88 41.7904 17.184 40.7344 17.792C39.6784 18.4 38.8144 19.296 38.1424 20.48C37.5024 21.632 37.1824 23.008 37.1824 24.608C37.1824 26.208 37.5024 27.616 38.1424 28.832C38.8144 30.016 39.6784 30.928 40.7344 31.568C41.8224 32.208 42.9744 32.528 44.1904 32.528C45.4384 32.528 46.6064 32.224 47.6944 31.616C48.7824 30.976 49.6464 30.08 50.2864 28.928C50.9264 27.744 51.2464 26.336 51.2464 24.704ZM74.7536 38.432C72.5776 38.432 70.6256 38.048 68.8976 37.28C67.1696 36.48 65.7936 35.408 64.7696 34.064C63.7776 32.72 63.2336 31.232 63.1376 29.6H69.9056C70.0336 30.624 70.5296 31.472 71.3936 32.144C72.2896 32.816 73.3936 33.152 74.7056 33.152C75.9856 33.152 76.9776 32.896 77.6816 32.384C78.4176 31.872 78.7856 31.216 78.7856 30.416C78.7856 29.552 78.3376 28.912 77.4416 28.496C76.5776 28.048 75.1856 27.568 73.2656 27.056C71.2816 26.576 69.6496 26.08 68.3696 25.568C67.1216 25.056 66.0336 24.272 65.1056 23.216C64.2096 22.16 63.7616 20.736 63.7616 18.944C63.7616 17.472 64.1776 16.128 65.0096 14.912C65.8736 13.696 67.0896 12.736 68.6576 12.032C70.2576 11.328 72.1296 10.976 74.2736 10.976C77.4416 10.976 79.9696 11.776 81.8576 13.376C83.7456 14.944 84.7856 17.072 84.9776 19.76H78.5456C78.4496 18.704 78.0016 17.872 77.2016 17.264C76.4336 16.624 75.3936 16.304 74.0816 16.304C72.8656 16.304 71.9216 16.528 71.2496 16.976C70.6096 17.424 70.2896 18.048 70.2896 18.848C70.2896 19.744 70.7376 20.432 71.6336 20.912C72.5296 21.36 73.9216 21.824 75.8096 22.304C77.7296 22.784 79.3136 23.28 80.5616 23.792C81.8096 24.304 82.8816 25.104 83.7776 26.192C84.7056 27.248 85.1856 28.656 85.2176 30.416C85.2176 31.952 84.7856 33.328 83.9216 34.544C83.0896 35.76 81.8736 36.72 80.2736 37.424C78.7056 38.096 76.8656 38.432 74.7536 38.432ZM89.0059 24.704C89.0059 21.952 89.5659 19.552 90.6859 17.504C91.8059 15.424 93.3579 13.824 95.3419 12.704C97.3259 11.552 99.5979 10.976 102.158 10.976C105.454 10.976 108.174 11.808 110.318 13.472C112.494 15.104 113.95 17.408 114.686 20.384H107.438C107.054 19.232 106.398 18.336 105.47 17.696C104.574 17.024 103.454 16.688 102.11 16.688C100.19 16.688 98.6699 17.392 97.5499 18.8C96.4299 20.176 95.8699 22.144 95.8699 24.704C95.8699 27.232 96.4299 29.2 97.5499 30.608C98.6699 31.984 100.19 32.672 102.11 32.672C104.83 32.672 106.606 31.456 107.438 29.024H114.686C113.95 31.904 112.494 34.192 110.318 35.888C108.142 37.584 105.422 38.432 102.158 38.432C99.5979 38.432 97.3259 37.872 95.3419 36.752C93.3579 35.6 91.8059 34 90.6859 31.952C89.5659 29.872 89.0059 27.456 89.0059 24.704ZM131.417 38.432C128.857 38.432 126.553 37.872 124.505 36.752C122.457 35.6 120.841 33.984 119.657 31.904C118.505 29.824 117.929 27.424 117.929 24.704C117.929 21.984 118.521 19.584 119.705 17.504C120.921 15.424 122.569 13.824 124.649 12.704C126.729 11.552 129.049 10.976 131.609 10.976C134.169 10.976 136.489 11.552 138.569 12.704C140.649 13.824 142.281 15.424 143.465 17.504C144.681 19.584 145.289 21.984 145.289 24.704C145.289 27.424 144.665 29.824 143.417 31.904C142.201 33.984 140.537 35.6 138.425 36.752C136.345 37.872 134.009 38.432 131.417 38.432ZM131.417 32.576C132.633 32.576 133.769 32.288 134.825 31.712C135.913 31.104 136.777 30.208 137.417 29.024C138.057 27.84 138.377 26.4 138.377 24.704C138.377 22.176 137.705 20.24 136.361 18.896C135.049 17.52 133.433 16.832 131.513 16.832C129.593 16.832 127.977 17.52 126.665 18.896C125.385 20.24 124.745 22.176 124.745 24.704C124.745 27.232 125.369 29.184 126.617 30.56C127.897 31.904 129.497 32.576 131.417 32.576ZM156.938 15.248C157.802 14.032 158.986 13.024 160.49 12.224C162.026 11.392 163.77 10.976 165.722 10.976C167.994 10.976 170.042 11.536 171.866 12.656C173.722 13.776 175.178 15.376 176.234 17.456C177.322 19.504 177.866 21.888 177.866 24.608C177.866 27.328 177.322 29.744 176.234 31.856C175.178 33.936 173.722 35.552 171.866 36.704C170.042 37.856 167.994 38.432 165.722 38.432C163.77 38.432 162.042 38.032 160.538 37.232C159.066 36.432 157.866 35.424 156.938 34.208V50.672H150.218V11.408H156.938V15.248ZM171.002 24.608C171.002 23.008 170.666 21.632 169.994 20.48C169.354 19.296 168.49 18.4 167.402 17.792C166.346 17.184 165.194 16.88 163.946 16.88C162.73 16.88 161.578 17.2 160.49 17.84C159.434 18.448 158.57 19.344 157.898 20.528C157.258 21.712 156.938 23.104 156.938 24.704C156.938 26.304 157.258 27.696 157.898 28.88C158.57 30.064 159.434 30.976 160.49 31.616C161.578 32.224 162.73 32.528 163.946 32.528C165.194 32.528 166.346 32.208 167.402 31.568C168.49 30.928 169.354 30.016 169.994 28.832C170.666 27.648 171.002 26.24 171.002 24.608ZM197.726 11.024C199.742 11.024 201.534 11.472 203.102 12.368C204.67 13.232 205.886 14.528 206.75 16.256C207.646 17.952 208.094 20 208.094 22.4V38H201.374V23.312C201.374 21.2 200.846 19.584 199.79 18.464C198.734 17.312 197.294 16.736 195.47 16.736C193.614 16.736 192.142 17.312 191.054 18.464C189.998 19.584 189.47 21.2 189.47 23.312V38H182.75V2.48H189.47V14.72C190.334 13.568 191.486 12.672 192.926 12.032C194.366 11.36 195.966 11.024 197.726 11.024ZM212.756 24.608C212.756 21.92 213.284 19.536 214.34 17.456C215.428 15.376 216.884 13.776 218.708 12.656C220.564 11.536 222.628 10.976 224.9 10.976C226.884 10.976 228.612 11.376 230.084 12.176C231.588 12.976 232.788 13.984 233.684 15.2V11.408H240.452V38H233.684V34.112C232.82 35.36 231.62 36.4 230.084 37.232C228.58 38.032 226.836 38.432 224.852 38.432C222.612 38.432 220.564 37.856 218.708 36.704C216.884 35.552 215.428 33.936 214.34 31.856C213.284 29.744 212.756 27.328 212.756 24.608ZM233.684 24.704C233.684 23.072 233.364 21.68 232.724 20.528C232.084 19.344 231.22 18.448 230.132 17.84C229.044 17.2 227.876 16.88 226.628 16.88C225.38 16.88 224.228 17.184 223.172 17.792C222.116 18.4 221.252 19.296 220.58 20.48C219.94 21.632 219.62 23.008 219.62 24.608C219.62 26.208 219.94 27.616 220.58 28.832C221.252 30.016 222.116 30.928 223.172 31.568C224.26 32.208 225.412 32.528 226.628 32.528C227.876 32.528 229.044 32.224 230.132 31.616C231.22 30.976 232.084 30.08 232.724 28.928C233.364 27.744 233.684 26.336 233.684 24.704ZM253.735 15.536C254.599 14.128 255.719 13.024 257.095 12.224C258.503 11.424 260.103 11.024 261.895 11.024V18.08H260.119C258.007 18.08 256.407 18.576 255.319 19.568C254.263 20.56 253.735 22.288 253.735 24.752V38H247.015V11.408H253.735V15.536ZM299.445 11.024C302.709 11.024 305.333 12.032 307.317 14.048C309.333 16.032 310.341 18.816 310.341 22.4V38H303.621V23.312C303.621 21.232 303.093 19.648 302.037 18.56C300.981 17.44 299.541 16.88 297.717 16.88C295.893 16.88 294.437 17.44 293.349 18.56C292.293 19.648 291.765 21.232 291.765 23.312V38H285.045V23.312C285.045 21.232 284.517 19.648 283.461 18.56C282.405 17.44 280.965 16.88 279.141 16.88C277.285 16.88 275.813 17.44 274.725 18.56C273.669 19.648 273.141 21.232 273.141 23.312V38H266.421V11.408H273.141V14.624C274.005 13.504 275.109 12.624 276.453 11.984C277.829 11.344 279.333 11.024 280.965 11.024C283.045 11.024 284.901 11.472 286.533 12.368C288.165 13.232 289.429 14.48 290.325 16.112C291.189 14.576 292.437 13.344 294.069 12.416C295.733 11.488 297.525 11.024 299.445 11.024ZM314.99 24.608C314.99 21.92 315.518 19.536 316.574 17.456C317.662 15.376 319.118 13.776 320.942 12.656C322.798 11.536 324.862 10.976 327.134 10.976C329.118 10.976 330.846 11.376 332.318 12.176C333.822 12.976 335.022 13.984 335.918 15.2V11.408H342.686V38H335.918V34.112C335.054 35.36 333.854 36.4 332.318 37.232C330.814 38.032 329.07 38.432 327.086 38.432C324.846 38.432 322.798 37.856 320.942 36.704C319.118 35.552 317.662 33.936 316.574 31.856C315.518 29.744 314.99 27.328 314.99 24.608ZM335.918 24.704C335.918 23.072 335.598 21.68 334.958 20.528C334.318 19.344 333.454 18.448 332.366 17.84C331.278 17.2 330.11 16.88 328.862 16.88C327.614 16.88 326.462 17.184 325.406 17.792C324.35 18.4 323.486 19.296 322.814 20.48C322.174 21.632 321.854 23.008 321.854 24.608C321.854 26.208 322.174 27.616 322.814 28.832C323.486 30.016 324.35 30.928 325.406 31.568C326.494 32.208 327.646 32.528 328.862 32.528C330.11 32.528 331.278 32.224 332.366 31.616C333.454 30.976 334.318 30.08 334.958 28.928C335.598 27.744 335.918 26.336 335.918 24.704ZM347.521 24.704C347.521 21.952 348.082 19.552 349.202 17.504C350.322 15.424 351.874 13.824 353.858 12.704C355.842 11.552 358.114 10.976 360.674 10.976C363.97 10.976 366.69 11.808 368.834 13.472C371.01 15.104 372.466 17.408 373.202 20.384H365.954C365.57 19.232 364.914 18.336 363.986 17.696C363.09 17.024 361.97 16.688 360.626 16.688C358.706 16.688 357.186 17.392 356.066 18.8C354.946 20.176 354.386 22.144 354.386 24.704C354.386 27.232 354.946 29.2 356.066 30.608C357.186 31.984 358.706 32.672 360.626 32.672C363.346 32.672 365.122 31.456 365.954 29.024H373.202C372.466 31.904 371.01 34.192 368.834 35.888C366.658 37.584 363.938 38.432 360.674 38.432C358.114 38.432 355.842 37.872 353.858 36.752C351.874 35.6 350.322 34 349.202 31.952C348.082 29.872 347.521 27.456 347.521 24.704ZM402.845 24.128C402.845 25.088 402.781 25.952 402.653 26.72H383.213C383.373 28.64 384.045 30.144 385.229 31.232C386.413 32.32 387.869 32.864 389.597 32.864C392.093 32.864 393.869 31.792 394.925 29.648H402.173C401.405 32.208 399.933 34.32 397.757 35.984C395.581 37.616 392.909 38.432 389.741 38.432C387.181 38.432 384.877 37.872 382.829 36.752C380.813 35.6 379.229 33.984 378.077 31.904C376.957 29.824 376.396 27.424 376.396 24.704C376.396 21.952 376.957 19.536 378.077 17.456C379.197 15.376 380.765 13.776 382.781 12.656C384.797 11.536 387.117 10.976 389.741 10.976C392.269 10.976 394.525 11.52 396.509 12.608C398.525 13.696 400.077 15.248 401.165 17.264C402.285 19.248 402.845 21.536 402.845 24.128ZM395.885 22.208C395.853 20.48 395.229 19.104 394.013 18.08C392.797 17.024 391.309 16.496 389.549 16.496C387.885 16.496 386.477 17.008 385.325 18.032C384.205 19.024 383.517 20.416 383.261 22.208H395.885ZM432.854 11.408V38H426.086V34.64C425.222 35.792 424.086 36.704 422.678 37.376C421.302 38.016 419.798 38.336 418.166 38.336C416.086 38.336 414.246 37.904 412.646 37.04C411.046 36.144 409.782 34.848 408.854 33.152C407.958 31.424 407.51 29.376 407.51 27.008V11.408H414.23V26.048C414.23 28.16 414.758 29.792 415.814 30.944C416.87 32.064 418.31 32.624 420.134 32.624C421.99 32.624 423.446 32.064 424.502 30.944C425.558 29.792 426.086 28.16 426.086 26.048V11.408H432.854ZM447.308 16.928V29.792C447.308 30.688 447.516 31.344 447.932 31.76C448.38 32.144 449.116 32.336 450.14 32.336H453.26V38H449.036C443.372 38 440.54 35.248 440.54 29.744V16.928H437.372V11.408H440.54V4.832H447.308V11.408H453.26V16.928H447.308ZM461.501 8.24C460.317 8.24 459.325 7.872 458.525 7.136C457.757 6.368 457.373 5.424 457.373 4.304C457.373 3.184 457.757 2.256 458.525 1.52C459.325 0.751998 460.317 0.367998 461.501 0.367998C462.685 0.367998 463.661 0.751998 464.429 1.52C465.229 2.256 465.629 3.184 465.629 4.304C465.629 5.424 465.229 6.368 464.429 7.136C463.661 7.872 462.685 8.24 461.501 8.24ZM464.813 11.408V38H458.093V11.408H464.813ZM469.725 24.704C469.725 21.952 470.285 19.552 471.405 17.504C472.525 15.424 474.077 13.824 476.061 12.704C478.045 11.552 480.317 10.976 482.877 10.976C486.173 10.976 488.893 11.808 491.037 13.472C493.213 15.104 494.669 17.408 495.405 20.384H488.157C487.773 19.232 487.117 18.336 486.189 17.696C485.293 17.024 484.173 16.688 482.829 16.688C480.909 16.688 479.389 17.392 478.269 18.8C477.149 20.176 476.589 22.144 476.589 24.704C476.589 27.232 477.149 29.2 478.269 30.608C479.389 31.984 480.909 32.672 482.829 32.672C485.549 32.672 487.325 31.456 488.157 29.024H495.405C494.669 31.904 493.213 34.192 491.037 35.888C488.861 37.584 486.141 38.432 482.877 38.432C480.317 38.432 478.045 37.872 476.061 36.752C474.077 35.6 472.525 34 471.405 31.952C470.285 29.872 469.725 27.456 469.725 24.704ZM498.6 24.608C498.6 21.92 499.128 19.536 500.184 17.456C501.272 15.376 502.728 13.776 504.552 12.656C506.408 11.536 508.472 10.976 510.744 10.976C512.728 10.976 514.456 11.376 515.928 12.176C517.432 12.976 518.632 13.984 519.528 15.2V11.408H526.296V38H519.528V34.112C518.664 35.36 517.464 36.4 515.928 37.232C514.424 38.032 512.68 38.432 510.696 38.432C508.456 38.432 506.408 37.856 504.552 36.704C502.728 35.552 501.272 33.936 500.184 31.856C499.128 29.744 498.6 27.328 498.6 24.608ZM519.528 24.704C519.528 23.072 519.208 21.68 518.568 20.528C517.928 19.344 517.064 18.448 515.976 17.84C514.888 17.2 513.72 16.88 512.472 16.88C511.224 16.88 510.072 17.184 509.016 17.792C507.96 18.4 507.096 19.296 506.424 20.48C505.784 21.632 505.464 23.008 505.464 24.608C505.464 26.208 505.784 27.616 506.424 28.832C507.096 30.016 507.96 30.928 509.016 31.568C510.104 32.208 511.256 32.528 512.472 32.528C513.72 32.528 514.888 32.224 515.976 31.616C517.064 30.976 517.928 30.08 518.568 28.928C519.208 27.744 519.528 26.336 519.528 24.704ZM539.579 2.48V38H532.859V2.48H539.579Z" fill="#171A1F" fill-opacity="0.7"/>
</svg>
